<mxfile host="app.diagrams.net" modified="2024-01-15T16:05:48.077Z" agent="Mozilla/5.0 (X11; Ubuntu; Linux x86_64; rv:121.0) Gecko/20100101 Firefox/121.0" etag="Mix7sf4tcz1pgdt0Hyx1" version="22.1.18" type="device">
  <diagram name="Page-1" id="E5AxCyOhZKjhce2MvHdj">
    <mxGraphModel dx="3290" dy="1312" grid="1" gridSize="5" guides="1" tooltips="1" connect="1" arrows="1" fold="1" page="1" pageScale="1" pageWidth="850" pageHeight="1100" math="0" shadow="0">
      <root>
        <mxCell id="0" />
        <mxCell id="1" parent="0" />
        <mxCell id="KBEGa4izW0I-MYj9QVqM-13" value="&lt;div style=&quot;font-size: 16px;&quot;&gt;&lt;font style=&quot;font-size: 16px;&quot;&gt;&lt;br&gt;&lt;/font&gt;&lt;/div&gt;&lt;div style=&quot;font-size: 16px;&quot;&gt;&lt;font style=&quot;font-size: 16px;&quot;&gt;&lt;br&gt;&lt;/font&gt;&lt;/div&gt;&lt;div style=&quot;font-size: 16px;&quot;&gt;&lt;font style=&quot;font-size: 16px;&quot;&gt;&lt;br&gt;&lt;/font&gt;&lt;/div&gt;&lt;div style=&quot;font-size: 16px;&quot;&gt;&lt;font style=&quot;font-size: 16px;&quot;&gt;&lt;br&gt;&lt;/font&gt;&lt;/div&gt;&lt;div style=&quot;font-size: 16px;&quot;&gt;&lt;font style=&quot;font-size: 16px;&quot;&gt;&lt;br&gt;&lt;/font&gt;&lt;/div&gt;&lt;div style=&quot;font-size: 16px;&quot;&gt;&lt;font style=&quot;font-size: 16px;&quot;&gt;&lt;br&gt;&lt;/font&gt;&lt;/div&gt;&lt;div style=&quot;font-size: 16px;&quot;&gt;&lt;font style=&quot;font-size: 16px;&quot;&gt;&lt;br&gt;&lt;/font&gt;&lt;/div&gt;&lt;div style=&quot;font-size: 16px;&quot;&gt;&lt;font style=&quot;font-size: 16px;&quot;&gt;&lt;br&gt;&lt;/font&gt;&lt;/div&gt;&lt;div style=&quot;font-size: 16px;&quot;&gt;&lt;font style=&quot;font-size: 16px;&quot;&gt;&lt;br&gt;&lt;/font&gt;&lt;/div&gt;&lt;div style=&quot;font-size: 16px;&quot;&gt;&lt;font style=&quot;font-size: 16px;&quot;&gt;&lt;br&gt;&lt;/font&gt;&lt;/div&gt;&lt;div style=&quot;font-size: 16px;&quot;&gt;&lt;br&gt;&lt;/div&gt;&lt;div style=&quot;font-size: 16px;&quot;&gt;&lt;font style=&quot;font-size: 16px;&quot;&gt;&lt;b&gt;&lt;br&gt;&lt;/b&gt;&lt;/font&gt;&lt;/div&gt;&lt;div style=&quot;font-size: 16px;&quot;&gt;&lt;font style=&quot;font-size: 16px;&quot;&gt;&lt;b&gt;packet Forwarder&lt;/b&gt;&lt;/font&gt;&lt;/div&gt;" style="rounded=1;whiteSpace=wrap;html=1;dashed=1;movable=1;resizable=1;rotatable=1;deletable=1;editable=1;locked=0;connectable=1;strokeWidth=2;" vertex="1" parent="1">
          <mxGeometry x="860" y="1890" width="390" height="255" as="geometry" />
        </mxCell>
        <mxCell id="KBEGa4izW0I-MYj9QVqM-12" value="" style="rounded=1;whiteSpace=wrap;html=1;dashed=1;fillColor=#e1d5e7;strokeColor=#9673a6;movable=1;resizable=1;rotatable=1;deletable=1;editable=1;locked=0;connectable=1;strokeWidth=2;" vertex="1" parent="1">
          <mxGeometry x="1055" y="1900" width="185" height="215" as="geometry" />
        </mxCell>
        <mxCell id="ir3scniFZbBamXwvJh3l-64" value="&lt;font style=&quot;font-size: 14px;&quot;&gt;&lt;b&gt;Mote emulator&lt;/b&gt;&lt;/font&gt;" style="text;html=1;strokeColor=none;fillColor=none;align=center;verticalAlign=middle;whiteSpace=wrap;rounded=0;" parent="1" vertex="1">
          <mxGeometry x="1110" y="1915" width="60" height="30" as="geometry" />
        </mxCell>
        <mxCell id="ir3scniFZbBamXwvJh3l-72" value="&amp;nbsp;" style="text;whiteSpace=wrap;html=1;" parent="1" vertex="1">
          <mxGeometry x="230" y="940" width="40" height="40" as="geometry" />
        </mxCell>
        <mxCell id="ir3scniFZbBamXwvJh3l-73" value="&amp;nbsp;" style="text;whiteSpace=wrap;html=1;" parent="1" vertex="1">
          <mxGeometry x="1690" y="990" width="40" height="40" as="geometry" />
        </mxCell>
        <mxCell id="ir3scniFZbBamXwvJh3l-87" value="Data down Parameters" style="text;html=1;strokeColor=none;fillColor=none;align=center;verticalAlign=middle;whiteSpace=wrap;rounded=0;" parent="1" vertex="1">
          <mxGeometry x="975" y="1945" width="60" height="40" as="geometry" />
        </mxCell>
        <mxCell id="ir3scniFZbBamXwvJh3l-90" value="JoinAccept Parameters" style="text;html=1;strokeColor=none;fillColor=none;align=center;verticalAlign=middle;whiteSpace=wrap;rounded=0;" parent="1" vertex="1">
          <mxGeometry x="980" y="2075" width="60" height="40" as="geometry" />
        </mxCell>
        <mxCell id="tfgUsdt2ixnzsKASo8Zw-9" value="&amp;nbsp;" style="text;whiteSpace=wrap;html=1;" parent="1" vertex="1">
          <mxGeometry x="-190" y="1310" width="40" height="40" as="geometry" />
        </mxCell>
        <mxCell id="tfgUsdt2ixnzsKASo8Zw-20" value="&amp;nbsp;" style="text;whiteSpace=wrap;html=1;" parent="1" vertex="1">
          <mxGeometry x="270" y="750" width="40" height="40" as="geometry" />
        </mxCell>
        <mxCell id="KBEGa4izW0I-MYj9QVqM-7" value="parse_pullresp" style="rounded=1;whiteSpace=wrap;html=1;fillColor=#f5f5f5;fontColor=#333333;strokeColor=#666666;" vertex="1" parent="1">
          <mxGeometry x="1075" y="1960" width="120" height="60" as="geometry" />
        </mxCell>
        <mxCell id="KBEGa4izW0I-MYj9QVqM-8" value="push" style="rounded=1;whiteSpace=wrap;html=1;fillColor=#f5f5f5;fontColor=#333333;strokeColor=#666666;" vertex="1" parent="1">
          <mxGeometry x="1075" y="2030" width="120" height="60" as="geometry" />
        </mxCell>
        <mxCell id="KBEGa4izW0I-MYj9QVqM-9" value="NETWORK SERVER OUTPUT QUEUE" style="shape=cylinder3;whiteSpace=wrap;html=1;boundedLbl=1;backgroundOutline=1;size=15;" vertex="1" parent="1">
          <mxGeometry x="865" y="1975" width="70" height="100" as="geometry" />
        </mxCell>
        <mxCell id="KBEGa4izW0I-MYj9QVqM-10" style="edgeStyle=orthogonalEdgeStyle;rounded=0;orthogonalLoop=1;jettySize=auto;html=1;exitX=0;exitY=0.5;exitDx=0;exitDy=0;entryX=1;entryY=0;entryDx=0;entryDy=32.5;entryPerimeter=0;" edge="1" parent="1" source="KBEGa4izW0I-MYj9QVqM-7" target="KBEGa4izW0I-MYj9QVqM-9">
          <mxGeometry relative="1" as="geometry" />
        </mxCell>
        <mxCell id="KBEGa4izW0I-MYj9QVqM-11" style="edgeStyle=orthogonalEdgeStyle;rounded=0;orthogonalLoop=1;jettySize=auto;html=1;exitX=0;exitY=0.5;exitDx=0;exitDy=0;entryX=1;entryY=0;entryDx=0;entryDy=67.5;entryPerimeter=0;" edge="1" parent="1" source="KBEGa4izW0I-MYj9QVqM-8" target="KBEGa4izW0I-MYj9QVqM-9">
          <mxGeometry relative="1" as="geometry" />
        </mxCell>
      </root>
    </mxGraphModel>
  </diagram>
</mxfile>
